<svg width="222" height="29" viewBox="0 0 222 29" fill="none" xmlns="http://www.w3.org/2000/svg">
<g clip-path="url(#clip0)">
<path d="M29.6082 10.064C27.7846 10.064 26.002 10.6047 24.4858 11.6178C22.9696 12.6309 21.7878 14.0709 21.09 15.7556C20.3922 17.4403 20.2096 19.2942 20.5654 21.0827C20.9211 22.8712 21.7992 24.514 23.0887 25.8035C24.3781 27.0929 26.021 27.971 27.8095 28.3268C29.598 28.6825 31.4518 28.5 33.1365 27.8021C34.8213 27.1043 36.2612 25.9225 37.2743 24.4063C38.2874 22.8901 38.8282 21.1075 38.8282 19.284C38.8255 16.8395 37.8533 14.4959 36.1248 12.7674C34.3963 11.0389 32.0527 10.0666 29.6082 10.064V10.064ZM29.6082 25.064C28.4644 25.064 27.3463 24.7248 26.3953 24.0894C25.4443 23.4539 24.7031 22.5507 24.2654 21.494C23.8277 20.4373 23.7132 19.2746 23.9363 18.1528C24.1594 17.031 24.7102 16.0005 25.519 15.1918C26.3278 14.383 27.3582 13.8322 28.48 13.6091C29.6018 13.3859 30.7645 13.5005 31.8212 13.9382C32.8779 14.3759 33.7811 15.1171 34.4166 16.0681C35.052 17.0191 35.3912 18.1372 35.3912 19.2809C35.3901 20.8146 34.7806 22.2853 33.6964 23.3701C32.6122 24.4548 31.1419 25.0651 29.6082 25.067V25.064Z" fill="#686868"/>
<path d="M60.3751 10.064C58.9337 10.0641 57.5125 10.4021 56.2254 11.0509C54.9383 11.6998 53.8213 12.6413 52.9639 13.8C52.1066 14.9587 51.533 16.3022 51.2889 17.7228C51.0448 19.1433 51.1372 20.6014 51.5587 21.9797C51.9801 23.3581 52.7188 24.6185 53.7155 25.6597C54.7122 26.7009 55.9392 27.4939 57.2979 27.975C58.6565 28.4562 60.1091 28.6121 61.539 28.4303C62.9688 28.2485 64.3361 27.7339 65.5311 26.928L63.6071 24.08C62.8593 24.5836 62.0043 24.9055 61.1101 25.02C60.2158 25.1344 59.3072 25.0383 58.4567 24.7393C57.6062 24.4403 56.8374 23.9467 56.2116 23.2978C55.5857 22.6489 55.1202 21.8627 54.8521 21.002H69.5951V19.283C69.5919 16.8387 68.6195 14.4956 66.8911 12.7673C65.1626 11.0391 62.8193 10.0669 60.3751 10.064V10.064ZM54.8531 17.564C55.2198 16.3861 55.9536 15.3564 56.9471 14.6251C57.9406 13.8939 59.142 13.4995 60.3756 13.4995C61.6093 13.4995 62.8105 13.8939 63.8041 14.6251C64.7976 15.3564 65.5313 16.3861 65.8981 17.564H54.8531Z" fill="#686868"/>
<path d="M153.015 13.501C154.167 13.4989 155.293 13.8427 156.247 14.488L158.171 11.6399C156.784 10.7045 155.169 10.1641 153.498 10.0766C151.827 9.98909 150.164 10.3578 148.687 11.1433C147.21 11.9288 145.974 13.1013 145.113 14.5354C144.251 15.9694 143.796 17.611 143.796 19.284C143.796 20.957 144.251 22.5985 145.113 24.0325C145.974 25.4666 147.21 26.6391 148.687 27.4246C150.164 28.2101 151.827 28.5788 153.498 28.4913C155.169 28.4038 156.784 27.8634 158.171 26.928L156.247 24.0799C155.497 24.5847 154.64 24.9067 153.743 25.0202C152.847 25.1336 151.936 25.0354 151.084 24.7333C150.232 24.4311 149.463 23.9335 148.838 23.2804C148.214 22.6273 147.751 21.8368 147.487 20.9725C147.223 20.1081 147.165 19.1939 147.318 18.3031C147.471 17.4124 147.831 16.57 148.368 15.8434C148.906 15.1169 149.606 14.5264 150.413 14.1194C151.22 13.7125 152.111 13.5003 153.015 13.5V13.501Z" fill="#686868"/>
<path d="M86.1471 10.064C84.7057 10.0641 83.2844 10.4021 81.9973 11.0509C80.7103 11.6998 79.5932 12.6413 78.7359 13.8C77.8786 14.9587 77.3049 16.3022 77.0609 17.7228C76.8168 19.1433 76.9092 20.6014 77.3306 21.9797C77.752 23.3581 78.4907 24.6185 79.4875 25.6597C80.4842 26.7009 81.7112 27.4939 83.0699 27.975C84.4285 28.4562 85.8811 28.6121 87.3109 28.4303C88.7408 28.2485 90.1081 27.7339 91.3031 26.928L89.3791 24.08C88.6313 24.5836 87.7763 24.9055 86.8821 25.02C85.9878 25.1344 85.0792 25.0383 84.2287 24.7393C83.3782 24.4403 82.6094 23.9467 81.9836 23.2978C81.3577 22.6489 80.8921 21.8627 80.6241 21.002H95.3671V19.283C95.3639 16.8387 94.3915 14.4956 92.6631 12.7673C90.9346 11.0391 88.5913 10.0669 86.1471 10.064V10.064ZM80.6241 17.564C80.9908 16.3861 81.7246 15.3564 82.7181 14.6251C83.7117 13.8939 84.9129 13.4995 86.1466 13.4995C87.3802 13.4995 88.5815 13.8939 89.575 14.6251C90.5686 15.3564 91.3024 16.3861 91.6691 17.564H80.6241Z" fill="#686868"/>
<path d="M200.207 10.064C198.766 10.0641 197.345 10.4021 196.057 11.0509C194.77 11.6998 193.653 12.6413 192.796 13.8C191.939 14.9587 191.365 16.3022 191.121 17.7228C190.877 19.1433 190.969 20.6014 191.391 21.9797C191.812 23.3581 192.551 24.6185 193.548 25.6597C194.544 26.7009 195.771 27.4939 197.13 27.975C198.489 28.4562 199.941 28.6121 201.371 28.4303C202.801 28.2485 204.168 27.7339 205.363 26.928L203.439 24.08C202.691 24.5836 201.836 24.9055 200.942 25.02C200.048 25.1344 199.139 25.0383 198.289 24.7393C197.438 24.4403 196.669 23.9467 196.044 23.2978C195.418 22.6489 194.952 21.8627 194.684 21.002H209.427V19.283C209.424 16.8387 208.452 14.4956 206.723 12.7673C204.995 11.0391 202.651 10.0669 200.207 10.064V10.064ZM194.684 17.564C195.051 16.3861 195.785 15.3564 196.778 14.6251C197.772 13.8939 198.973 13.4995 200.207 13.4995C201.44 13.4995 202.642 13.8939 203.635 14.6251C204.629 15.3564 205.362 16.3861 205.729 17.564H194.684Z" fill="#686868"/>
<path d="M9.22 10.064C7.11455 10.0625 5.07267 10.7853 3.43701 12.111V0H0V28.5H3.43701V19.28C3.43701 17.7463 4.04629 16.2753 5.13081 15.1908C6.21534 14.1063 7.68625 13.497 9.22 13.497C10.7537 13.497 12.2247 14.1063 13.3092 15.1908C14.3937 16.2753 15.003 17.7463 15.003 19.28V28.5H18.44V19.28C18.4363 16.8362 17.4636 14.4936 15.7352 12.766C14.0068 11.0383 11.6638 10.0666 9.22 10.064V10.064Z" fill="#686868"/>
<path d="M74.979 0H71.542V28.504H74.979V0Z" fill="#686868"/>
<path d="M46.8461 0H43.4091V10.064H39.3301V13.501H43.4091V28.501H46.8461V13.501H50.9251V10.064H46.8461V0Z" fill="#686868"/>
<path d="M221.022 10.064H216.943V0H213.505V10.064H209.426V13.501H213.505V28.501H216.942V13.501H221.021L221.022 10.064Z" fill="#686868"/>
<path d="M108.586 17.575H102.778C102.235 17.575 101.714 17.3593 101.331 16.9754C100.947 16.5915 100.731 16.0709 100.731 15.528C100.731 14.9851 100.947 14.4644 101.331 14.0805C101.714 13.6966 102.235 13.481 102.778 13.481H112.771V10.064H102.778C101.329 10.064 99.9388 10.6397 98.914 11.6645C97.8892 12.6893 97.3135 14.0792 97.3135 15.5284C97.3135 16.9777 97.8892 18.3677 98.914 19.3925C99.9388 20.4172 101.329 20.993 102.778 20.993H108.586C109.129 20.993 109.65 21.2086 110.033 21.5925C110.417 21.9764 110.633 22.4971 110.633 23.04C110.633 23.5829 110.417 24.1035 110.033 24.4874C109.65 24.8713 109.129 25.087 108.586 25.087H98.593V28.504H108.586C110.035 28.504 111.425 27.9282 112.45 26.9034C113.475 25.8786 114.05 24.4888 114.05 23.0395C114.05 21.5902 113.475 20.2003 112.45 19.1755C111.425 18.1507 110.035 17.575 108.586 17.575V17.575Z" fill="#686868"/>
<path d="M143.805 10.064H139.33L133.883 16.603L128.436 10.064H123.963L131.646 19.288L123.97 28.504H128.443L133.883 21.973L139.322 28.504H143.794L136.119 19.2889L143.805 10.064Z" fill="#686868"/>
<path d="M174.893 12.111C173.539 11.0177 171.903 10.3299 170.175 10.1272C168.446 9.92451 166.696 10.2151 165.126 10.9654C163.555 11.7158 162.23 12.8952 161.302 14.3673C160.373 15.8394 159.881 17.5442 159.881 19.2845C159.881 21.0248 160.373 22.7295 161.302 24.2017C162.23 25.6738 163.555 26.8532 165.126 27.6035C166.696 28.3538 168.446 28.6444 170.175 28.4417C171.903 28.239 173.539 27.5512 174.893 26.4579V28.5049H178.33V10.065H174.893V12.111ZM169.11 25.068C167.966 25.068 166.848 24.7288 165.897 24.0934C164.946 23.4579 164.205 22.5547 163.767 21.498C163.33 20.4413 163.215 19.2785 163.438 18.1567C163.661 17.0349 164.212 16.0046 165.021 15.1958C165.83 14.387 166.86 13.8362 167.982 13.6131C169.104 13.39 170.266 13.5045 171.323 13.9422C172.38 14.3799 173.283 15.1211 173.918 16.0721C174.554 17.0231 174.893 18.1412 174.893 19.285C174.891 20.818 174.281 22.2875 173.197 23.3715C172.113 24.4554 170.643 25.0651 169.11 25.0669V25.068Z" fill="#686868"/>
<path d="M190.987 10.064C188.882 10.0622 186.84 10.7846 185.204 12.11V10.064H181.767V28.504H185.204V19.284C185.206 17.7508 185.816 16.281 186.9 15.1968C187.984 14.1127 189.454 13.5028 190.987 13.501V10.064Z" fill="#686868"/>
</g>
<defs>
<clipPath id="clip0">
<rect width="221.023" height="28.504" fill="white"/>
</clipPath>
</defs>
</svg>
