<?xml version="1.0" encoding="utf-8"?>
<!-- Generator: Adobe Illustrator 27.7.0, SVG Export Plug-In . SVG Version: 6.00 Build 0)  -->
<svg version="1.1" xmlns="http://www.w3.org/2000/svg" xmlns:xlink="http://www.w3.org/1999/xlink" x="0px" y="0px"
	 viewBox="0 0 96.1 50.7" style="enable-background:new 0 0 96.1 50.7;" xml:space="preserve">
<style type="text/css">
	.st0{fill:#686868;}
</style>
<g id="Capa_1">
</g>
<g id="Capa_2">
	<g>
		<g>
			<g>
				<g>
					<polygon class="st0" points="35.3,15.5 35.3,21.8 36.4,23.4 40.1,23.4 40.1,15.5 					"/>
					<polygon class="st0" points="56.1,23.4 60.9,23.4 61,15.5 56.1,15.5 					"/>
					<path class="st0" d="M58.5,10.2c-1.4,0-2.5,1.1-2.5,2.5c0,1.4,1.1,2.5,2.5,2.5c1.4,0,2.5-1.1,2.5-2.5
						C61,11.3,59.9,10.2,58.5,10.2z"/>
					<path class="st0" d="M21.5,13.2L21.5,13.2c-0.3-1-0.9-1.9-1.8-2.4c-0.3-0.1-0.5-0.3-0.8-0.3l0,0c0,0,0,0,0,0
						c-0.2-0.1-0.4-0.1-0.6-0.1c-0.1,0-0.2,0-0.3,0c-0.3,0-0.6,0-1,0.1c0,0,0,0,0,0c-0.1,0-0.2,0-0.2,0.1c-1.2,0.4-2.1,1.4-2.4,2.7
						c-1.5,0.4-2.7,1.7-2.9,3.3c0,0.1,0,0.2,0,0.3c0,0.4,0.1,0.9,0.2,1.3c0.4,1.2,1.4,2.1,2.7,2.4c0.3,1.3,1.3,2.4,2.6,2.7
						c0.3,0.1,0.7,0.1,1,0.1c0.1,0,0.2,0,0.4,0c0.2,0,0.4-0.1,0.6-0.1h0c0.3-0.1,0.5-0.2,0.8-0.3c0.9-0.5,1.6-1.4,1.8-2.4
						c1.2-0.3,2.2-1.2,2.7-2.4c0.1-0.4,0.2-0.8,0.2-1.3c0-0.1,0-0.2,0-0.3C24.2,14.9,23,13.6,21.5,13.2z M17.9,18.9
						c-1.1,0-2.1-0.9-2.1-2.1c0-0.1,0-0.3,0-0.4c0-0.1,0-0.1,0-0.2c0.3-0.9,1-1.5,2-1.5c0.9,0,1.7,0.6,2,1.5c0,0.1,0,0.1,0,0.2
						c0,0.1,0,0.3,0,0.4C19.9,18,19,18.9,17.9,18.9z"/>
					<path class="st0" d="M37.7,10.2c-1.4,0-2.5,1.1-2.5,2.5c0,1.4,1.1,2.5,2.5,2.5c1.4,0,2.5-1.1,2.5-2.5
						C40.1,11.3,39,10.2,37.7,10.2z"/>
					<path class="st0" d="M48,12.6l-2-2.2l-5.4,0v13h0v0h4.9v-6.5l2,0.8c-0.3-0.4-0.4-0.9-0.4-1.4c0-0.7,0.3-1.4,0.9-1.9
						c0.5,0.5,0.9,1.2,0.9,1.9c0,0.5-0.1,1-0.4,1.4l2-0.8l0,6.5h4.9l0-9.6v-3.4H50L48,12.6z"/>
					<path class="st0" d="M76.3,18c-0.4,0.9-1.3,1.5-2.4,1.5c-0.7,0-1.3-0.3-1.8-0.8c-0.5-0.5-0.8-1.2-0.8-1.8
						c0-0.9,0.4-1.5,0.8-1.9c0.5-0.5,1.1-0.8,1.8-0.8c1,0,1.7,0.4,2.2,1.2H78c0.2-1,0.7-2,1.4-2.8c-1.2-1.6-3.2-2.5-5.4-2.5
						c-1.8,0-3.6,0.7-4.9,2l0,0c-1.3,1.3-2,3-2,4.8c0,0.6,0.1,1.1,0.2,1.7c0,0.1,0.1,0.2,0.1,0.2h3.8v4.3c0.9,0.4,1.8,0.6,2.8,0.6
						c2.2,0,4.1-0.9,5.4-2.5c-0.7-0.9-1.2-2-1.4-3.2H76.3z"/>
					<polygon class="st0" points="66.4,19.3 66.4,10.4 61.5,10.4 61.5,23.4 70.5,23.4 70.5,19.3 					"/>
					<path class="st0" d="M85.3,10.1c-3.9,0-7,3.1-7,6.8c0,3.8,3.1,6.8,7,6.8c3.9,0,7-3.1,7-6.8C92.3,13.1,89.2,10.1,85.3,10.1z
						 M85.3,19.5c-1.5,0-2.7-1.2-2.7-2.7c0-1.5,1.2-2.7,2.7-2.7c1.5,0,2.7,1.2,2.7,2.7C88,18.3,86.8,19.5,85.3,19.5z"/>
					<path class="st0" d="M31.1,17.2L31.1,17.2l4.6-6.8l-6.5,0l-1.9,2.2l-2-2.2H20c0.9,0.5,1.6,1.4,2,2.4c1.6,0.5,2.8,2,3,3.7
						c0,0.1,0,0.2,0,0.4c0,0.5-0.1,1-0.3,1.4c-0.5,1.3-1.5,2.2-2.7,2.6c-0.3,1-1,1.9-2,2.4h5.4l1.9-2.2l2,2.2h6.5L31.1,17.2z"/>
					<path class="st0" d="M13.8,20.9c-1.3-0.4-2.3-1.4-2.7-2.6c-0.2-0.5-0.3-0.9-0.3-1.4c0-0.1,0-0.2,0-0.4c0.2-1.7,1.3-3.2,3-3.7
						c0.3-1,1.1-1.9,2-2.4h-5.4l-1.9,2.2l-2-2.2H0l4.7,6.2L0,23.4h6.6l1.9-2.2l2,2.2h5.3C14.8,22.8,14.1,22,13.8,20.9z"/>
				</g>
			</g>
			<g>
				<path class="st0" d="M0.3,25.4C0.3,25.4,0.4,25.4,0.3,25.4c0.1-0.1,0.1-0.1,0.1-0.1h0.9c0.1,0,0.1,0,0.1,0.1l0.7,2.3l0.7-2.3
					c0-0.1,0.1-0.1,0.1-0.1h0.9c0,0,0.1,0,0.1,0c0,0,0,0,0,0.1c0.1,0.6,0.1,1.2,0.2,1.8c0.1,0.6,0.1,1.2,0.2,1.8v0
					c0,0.1,0,0.1-0.1,0.1H3.6c-0.1,0-0.1,0-0.1-0.1l-0.2-2l-0.6,2c0,0,0,0,0,0.1c0,0,0,0-0.1,0H1.8c0,0,0,0-0.1,0c0,0,0,0,0-0.1
					l-0.6-2l-0.2,2c0,0.1,0,0.1-0.1,0.1H0.1C0,29.2,0,29.1,0,29L0.3,25.4z"/>
				<path class="st0" d="M4.8,25.4C4.8,25.4,4.8,25.4,4.8,25.4c0-0.1,0.1-0.1,0.1-0.1h2.6c0,0,0.1,0,0.1,0c0,0,0,0.1,0,0.1v0.6
					c0,0,0,0.1,0,0.1c0,0-0.1,0-0.1,0H5.8v0.6h1.3c0,0,0.1,0,0.1,0c0,0,0,0,0,0.1v0.6c0,0,0,0,0,0.1c0,0,0,0-0.1,0H5.8v0.7h1.7
					c0.1,0,0.1,0,0.1,0.1V29c0,0,0,0,0,0c0,0,0,0.1-0.1,0.1H4.9c0,0-0.1,0-0.1,0c0,0,0,0,0-0.1V25.4z"/>
				<path class="st0" d="M7.7,29.1C7.7,29.1,7.7,29,7.7,29.1C7.7,29,7.7,29,7.8,28.9l1.2-1.7c-0.2-0.3-0.4-0.6-0.6-0.9
					c-0.2-0.3-0.4-0.6-0.6-0.9c0,0,0,0,0,0c0,0,0,0,0,0c0,0,0,0,0,0c0,0,0,0,0.1,0h0.9c0.1,0,0.1,0,0.1,0.1l0.6,0.9l0.6-0.9
					c0-0.1,0.1-0.1,0.1-0.1h0.8c0,0,0,0,0,0c0,0,0,0,0.1,0c0,0,0,0,0,0c0,0,0,0,0,0c0,0,0,0,0,0.1L10,27.2l1.2,1.8c0,0,0,0,0,0.1
					c0,0,0,0,0,0.1c0,0,0,0,0,0h-0.9c0,0-0.1,0-0.1,0c0,0,0,0-0.1-0.1l-0.7-1l-0.7,1c0,0,0,0.1-0.1,0.1c0,0-0.1,0-0.1,0L7.7,29.1
					L7.7,29.1C7.7,29.2,7.7,29.2,7.7,29.1C7.7,29.1,7.7,29.1,7.7,29.1C7.7,29.1,7.7,29.1,7.7,29.1z"/>
				<path class="st0" d="M11.5,25.4C11.5,25.4,11.6,25.4,11.5,25.4c0-0.1,0.1-0.1,0.1-0.1h0.8c0,0,0.1,0,0.1,0c0,0,0,0,0,0.1V29
					c0,0.1,0,0.1-0.1,0.1h-0.8c-0.1,0-0.1,0-0.1-0.1V25.4z"/>
				<path class="st0" d="M16,25.6C16.1,25.6,16.1,25.6,16,25.6c0.1,0.1,0.1,0.1,0.1,0.2l-0.4,0.6c0,0,0,0-0.1,0.1c0,0,0,0-0.1,0
					c-0.1-0.1-0.2-0.1-0.3-0.1c-0.1,0-0.2-0.1-0.3-0.1c-0.1,0-0.3,0-0.4,0.1c-0.1,0.1-0.2,0.1-0.3,0.2c-0.1,0.1-0.2,0.2-0.2,0.3
					c0,0.1-0.1,0.3-0.1,0.4c0,0.1,0,0.3,0.1,0.4c0,0.1,0.1,0.2,0.2,0.3c0.1,0.1,0.2,0.2,0.3,0.2c0.1,0.1,0.2,0.1,0.4,0.1
					c0.1,0,0.2,0,0.3-0.1c0.1,0,0.2-0.1,0.3-0.1c0,0,0.1,0,0.1,0c0,0,0,0,0.1,0l0.4,0.6c0,0,0,0.1,0,0.1c0,0,0,0-0.1,0.1
					c-0.2,0.1-0.3,0.2-0.5,0.3c-0.2,0.1-0.4,0.1-0.6,0.1c-0.2,0-0.4,0-0.5-0.1c-0.2,0-0.3-0.1-0.5-0.2c-0.1-0.1-0.3-0.2-0.4-0.3
					c-0.1-0.1-0.2-0.3-0.3-0.4c-0.1-0.1-0.2-0.3-0.2-0.5c0-0.2-0.1-0.3-0.1-0.5c0-0.2,0-0.4,0.1-0.5c0-0.2,0.1-0.3,0.2-0.5
					c0.1-0.1,0.2-0.3,0.3-0.4c0.1-0.1,0.3-0.2,0.4-0.3c0.1-0.1,0.3-0.2,0.5-0.2c0.2,0,0.3-0.1,0.5-0.1c0.2,0,0.4,0,0.6,0.1
					C15.7,25.4,15.9,25.5,16,25.6z"/>
				<path class="st0" d="M17.6,25.4C17.6,25.4,17.6,25.4,17.6,25.4C17.6,25.4,17.6,25.4,17.6,25.4C17.6,25.4,17.7,25.3,17.6,25.4
					c0.1-0.1,0.1-0.1,0.1-0.1h0.7c0,0,0.1,0,0.1,0c0,0,0,0,0,0l0.1,0.1l1.4,3.5c0,0,0,0.1,0,0.1c0,0-0.1,0-0.1,0h-0.7
					c0,0-0.1,0-0.1,0c0,0,0,0-0.1-0.1c0-0.1-0.1-0.2-0.1-0.3c0-0.1-0.1-0.2-0.1-0.3h-1.4c0,0.1-0.1,0.2-0.1,0.3
					c0,0.1-0.1,0.2-0.1,0.3c0,0.1-0.1,0.1-0.1,0.1h-0.8c0,0-0.1,0-0.1,0c0,0,0,0,0-0.1L17.6,25.4z M18,26.5c0,0.1-0.1,0.2-0.1,0.3
					c0,0.1-0.1,0.2-0.1,0.3c0,0.1-0.1,0.2-0.1,0.3c0,0.1-0.1,0.2-0.1,0.3h0.8L18,26.5z"/>
				<path class="st0" d="M20.2,25.4C20.2,25.4,20.2,25.4,20.2,25.4c0-0.1,0.1-0.1,0.1-0.1h0.8c0,0,0,0,0.1,0c0,0,0,0,0.1,0.1
					c0.2,0.4,0.4,0.7,0.6,1c0.2,0.3,0.4,0.7,0.7,1v-2.1c0,0,0-0.1,0-0.1c0,0,0,0,0.1,0h0.7c0,0,0.1,0,0.1,0c0,0,0,0,0,0.1v3.6
					c0,0,0,0.1,0,0.1c0,0,0,0-0.1,0h-0.8c0,0,0,0-0.1,0c0,0,0,0-0.1-0.1c-0.2-0.4-0.5-0.8-0.7-1.1c-0.2-0.4-0.5-0.7-0.7-1.1V29
					c0,0,0,0.1,0,0.1c0,0,0,0-0.1,0h-0.7c0,0-0.1,0-0.1,0c0,0,0,0,0-0.1V25.4z"/>
				<path class="st0" d="M25.5,25.4C25.5,25.4,25.5,25.4,25.5,25.4c0-0.1,0.1-0.1,0.1-0.1h2.5c0,0,0.1,0,0.1,0c0,0,0,0.1,0,0.1v0.6
					c0,0,0,0.1,0,0.1c0,0-0.1,0-0.1,0h-1.6V27h1.2c0,0,0.1,0,0.1,0c0,0,0,0,0,0.1v0.6c0,0,0,0.1,0,0.1c0,0,0,0-0.1,0h-1.2V29
					c0,0.1,0,0.1-0.1,0.1h-0.8c-0.1,0-0.1,0-0.1-0.1V25.4z"/>
				<path class="st0" d="M28.5,25.4C28.5,25.4,28.5,25.4,28.5,25.4c0.1-0.1,0.1-0.1,0.1-0.1h0.8c0,0,0.1,0,0.1,0c0,0,0,0,0,0.1v2.8
					h1.4c0,0,0.1,0,0.1,0c0,0,0,0,0,0.1V29c0,0,0,0.1,0,0.1c0,0,0,0-0.1,0h-2.3c-0.1,0-0.1,0-0.1-0.1V25.4z"/>
				<path class="st0" d="M31.1,27.2c0-0.2,0-0.4,0.1-0.5c0-0.2,0.1-0.3,0.2-0.5c0.1-0.1,0.2-0.3,0.3-0.4c0.1-0.1,0.3-0.2,0.4-0.3
					c0.1-0.1,0.3-0.2,0.5-0.2c0.2,0,0.3-0.1,0.5-0.1c0.2,0,0.4,0,0.5,0.1c0.2,0,0.3,0.1,0.5,0.2c0.1,0.1,0.3,0.2,0.4,0.3
					c0.1,0.1,0.2,0.3,0.3,0.4c0.1,0.1,0.2,0.3,0.2,0.5c0,0.2,0.1,0.3,0.1,0.5c0,0.2,0,0.4-0.1,0.5c0,0.2-0.1,0.3-0.2,0.5
					c-0.1,0.1-0.2,0.3-0.3,0.4c-0.1,0.1-0.3,0.2-0.4,0.3c-0.1,0.1-0.3,0.2-0.5,0.2c-0.2,0-0.3,0.1-0.5,0.1c-0.2,0-0.4,0-0.5-0.1
					c-0.2,0-0.3-0.1-0.5-0.2c-0.1-0.1-0.3-0.2-0.4-0.3c-0.1-0.1-0.2-0.3-0.3-0.4c-0.1-0.1-0.2-0.3-0.2-0.5
					C31.1,27.6,31.1,27.4,31.1,27.2z M32.1,27.2c0,0.1,0,0.3,0.1,0.4c0,0.1,0.1,0.2,0.2,0.3c0.1,0.1,0.2,0.2,0.3,0.2
					c0.1,0.1,0.2,0.1,0.4,0.1c0.1,0,0.3,0,0.4-0.1c0.1-0.1,0.2-0.1,0.3-0.2c0.1-0.1,0.2-0.2,0.2-0.3c0-0.1,0.1-0.3,0.1-0.4
					c0-0.1,0-0.3-0.1-0.4c0-0.1-0.1-0.2-0.2-0.3c-0.1-0.1-0.2-0.2-0.3-0.2c-0.1-0.1-0.3-0.1-0.4-0.1c-0.1,0-0.3,0-0.4,0.1
					c-0.1,0.1-0.2,0.1-0.3,0.2c-0.1,0.1-0.2,0.2-0.2,0.3C32.1,27,32.1,27.1,32.1,27.2z"/>
				<path class="st0" d="M36.2,25.4C36.2,25.4,36.2,25.4,36.2,25.4C36.2,25.4,36.2,25.4,36.2,25.4C36.3,25.4,36.3,25.3,36.2,25.4
					c0.1-0.1,0.1-0.1,0.1-0.1H37c0,0,0.1,0,0.1,0c0,0,0,0,0,0l0.1,0.1l1.4,3.5c0,0,0,0.1,0,0.1c0,0-0.1,0-0.1,0h-0.7
					c0,0-0.1,0-0.1,0c0,0,0,0-0.1-0.1c0-0.1-0.1-0.2-0.1-0.3c0-0.1-0.1-0.2-0.1-0.3H36c0,0.1-0.1,0.2-0.1,0.3c0,0.1-0.1,0.2-0.1,0.3
					c0,0.1-0.1,0.1-0.1,0.1h-0.8c0,0-0.1,0-0.1,0c0,0,0,0,0-0.1L36.2,25.4z M36.7,26.5c0,0.1-0.1,0.2-0.1,0.3c0,0.1-0.1,0.2-0.1,0.3
					c0,0.1-0.1,0.2-0.1,0.3c0,0.1-0.1,0.2-0.1,0.3H37L36.7,26.5z"/>
				<path class="st0" d="M37.9,25.4C37.9,25.4,37.9,25.4,37.9,25.4c0.1-0.1,0.1-0.1,0.1-0.1h2.8c0,0,0.1,0,0.1,0c0,0,0,0,0,0.1v0.6
					c0,0,0,0.1,0,0.1c0,0-0.1,0-0.1,0h-0.9V29c0,0,0,0.1,0,0.1c0,0-0.1,0-0.1,0h-0.8c0,0-0.1,0-0.1,0c0,0,0-0.1,0-0.1v-2.8H38
					c0,0-0.1,0-0.1,0c0,0,0-0.1,0-0.1V25.4z"/>
				<path class="st0" d="M41.3,25.4C41.3,25.4,41.3,25.4,41.3,25.4c0-0.1,0.1-0.1,0.1-0.1h0.8c0,0,0.1,0,0.1,0c0,0,0,0,0,0.1V29
					c0,0.1,0,0.1-0.1,0.1h-0.8c-0.1,0-0.1,0-0.1-0.1V25.4z"/>
				<path class="st0" d="M42.9,25.4C42.9,25.4,42.9,25.4,42.9,25.4c0-0.1,0.1-0.1,0.1-0.1h0.8c0,0,0,0,0.1,0c0,0,0,0,0.1,0.1
					c0.2,0.4,0.4,0.7,0.6,1c0.2,0.3,0.4,0.7,0.7,1v-2.1c0,0,0-0.1,0-0.1c0,0,0,0,0.1,0h0.7c0,0,0.1,0,0.1,0c0,0,0,0,0,0.1v3.6
					c0,0,0,0.1,0,0.1c0,0,0,0-0.1,0h-0.8c0,0,0,0-0.1,0c0,0,0,0-0.1-0.1c-0.2-0.4-0.5-0.8-0.7-1.1c-0.2-0.4-0.5-0.7-0.7-1.1V29
					c0,0,0,0.1,0,0.1c0,0,0,0-0.1,0H43c0,0-0.1,0-0.1,0c0,0,0,0,0-0.1V25.4z"/>
				<path class="st0" d="M49.3,26.4c-0.1-0.1-0.2-0.1-0.3-0.1c-0.1,0-0.2-0.1-0.3-0.1c-0.1,0-0.3,0-0.4,0.1
					c-0.1,0.1-0.2,0.1-0.3,0.2c-0.1,0.1-0.2,0.2-0.2,0.3c0,0.1-0.1,0.3-0.1,0.4c0,0.1,0,0.3,0.1,0.4c0,0.1,0.1,0.2,0.2,0.3
					c0.1,0.1,0.2,0.2,0.3,0.2c0.1,0.1,0.2,0.1,0.4,0.1c0.1,0,0.1,0,0.2,0c0.1,0,0.1,0,0.2,0v-0.7c0,0,0-0.1,0-0.1c0,0,0,0,0.1,0h0.7
					c0,0,0.1,0,0.1,0c0,0,0,0,0,0.1v1.2c0,0,0,0.1-0.1,0.1C49.8,29,49.7,29,49.6,29c-0.1,0-0.2,0.1-0.3,0.1c-0.1,0-0.2,0-0.3,0.1
					c-0.1,0-0.2,0-0.3,0c-0.2,0-0.4,0-0.5-0.1c-0.2,0-0.3-0.1-0.5-0.2c-0.1-0.1-0.3-0.2-0.4-0.3c-0.1-0.1-0.2-0.3-0.3-0.4
					c-0.1-0.1-0.2-0.3-0.2-0.5c0-0.2-0.1-0.3-0.1-0.5c0-0.2,0-0.4,0.1-0.5c0-0.2,0.1-0.3,0.2-0.5c0.1-0.1,0.2-0.3,0.3-0.4
					c0.1-0.1,0.3-0.2,0.4-0.3c0.1-0.1,0.3-0.2,0.5-0.2c0.2,0,0.3-0.1,0.5-0.1c0.2,0,0.4,0,0.6,0.1c0.2,0.1,0.4,0.1,0.5,0.2
					c0,0,0.1,0,0.1,0.1c0,0,0,0.1,0,0.1l-0.4,0.6C49.4,26.4,49.4,26.4,49.3,26.4C49.3,26.4,49.3,26.4,49.3,26.4z"/>
				<path class="st0" d="M51.9,25.4C51.9,25.4,51.9,25.4,51.9,25.4c0-0.1,0.1-0.1,0.1-0.1h2.5c0,0,0.1,0,0.1,0c0,0,0,0.1,0,0.1v0.6
					c0,0,0,0.1,0,0.1c0,0-0.1,0-0.1,0h-1.6V27H54c0,0,0.1,0,0.1,0c0,0,0,0,0,0.1v0.6c0,0,0,0.1,0,0.1c0,0,0,0-0.1,0h-1.2V29
					c0,0.1,0,0.1-0.1,0.1h-0.8c-0.1,0-0.1,0-0.1-0.1V25.4z"/>
				<path class="st0" d="M54.9,25.4C54.9,25.4,54.9,25.4,54.9,25.4c0-0.1,0.1-0.1,0.1-0.1h0.8c0,0,0.1,0,0.1,0c0,0,0,0,0,0.1V29
					c0,0.1,0,0.1-0.1,0.1H55c-0.1,0-0.1,0-0.1-0.1V25.4z"/>
				<path class="st0" d="M56.5,25.4C56.5,25.4,56.5,25.4,56.5,25.4c0-0.1,0.1-0.1,0.1-0.1h2.6c0,0,0.1,0,0.1,0c0,0,0,0.1,0,0.1v0.6
					c0,0,0,0.1,0,0.1c0,0-0.1,0-0.1,0h-1.7v0.6h1.3c0,0,0.1,0,0.1,0c0,0,0,0,0,0.1v0.6c0,0,0,0,0,0.1c0,0,0,0-0.1,0h-1.3v0.7h1.7
					c0.1,0,0.1,0,0.1,0.1V29c0,0,0,0,0,0c0,0,0,0.1-0.1,0.1h-2.6c0,0-0.1,0-0.1,0c0,0,0,0,0-0.1V25.4z"/>
				<path class="st0" d="M60.2,27.9c0,0,0.1,0.1,0.1,0.1c0,0,0.1,0.1,0.2,0.1c0.1,0.1,0.2,0.1,0.3,0.1c0.1,0,0.2,0,0.3,0
					c0.1,0,0.2,0,0.2,0c0.1,0,0.1,0,0.1-0.1c0,0,0.1-0.1,0.1-0.1c0,0,0-0.1,0-0.1c0-0.1,0-0.1-0.1-0.1c0,0-0.1-0.1-0.1-0.1
					c-0.1,0-0.1-0.1-0.2-0.1c-0.1,0-0.1,0-0.2-0.1c-0.2-0.1-0.4-0.1-0.5-0.2c-0.2-0.1-0.3-0.2-0.4-0.3c-0.1-0.1-0.2-0.2-0.2-0.3
					c-0.1-0.1-0.1-0.3-0.1-0.4c0-0.2,0-0.3,0.1-0.4c0.1-0.1,0.2-0.2,0.3-0.3c0.1-0.1,0.3-0.2,0.4-0.2c0.2-0.1,0.4-0.1,0.6-0.1
					c0.2,0,0.3,0,0.4,0.1s0.3,0.1,0.4,0.2c0.1,0,0.1,0.1,0.2,0.1c0.1,0,0.1,0.1,0.1,0.1c0,0,0.1,0.1,0.1,0.1c0,0,0,0.1,0,0.1
					c0,0,0,0,0,0.1c0,0,0,0-0.1,0.1l-0.4,0.4c0,0-0.1,0-0.1,0c0,0,0,0-0.1,0c0,0,0,0-0.1-0.1l0,0c0,0-0.1-0.1-0.1-0.1
					c0,0-0.1-0.1-0.1-0.1c0,0-0.1,0-0.2-0.1c-0.1,0-0.1,0-0.2,0c-0.1,0-0.1,0-0.2,0c0,0-0.1,0-0.1,0c0,0-0.1,0-0.1,0.1
					c0,0,0,0.1,0,0.1c0,0,0,0.1,0,0.1c0,0,0.1,0.1,0.1,0.1c0,0,0.1,0.1,0.2,0.1c0.1,0,0.2,0.1,0.2,0.1c0.2,0.1,0.4,0.1,0.5,0.2
					c0.2,0.1,0.3,0.1,0.4,0.2c0.1,0.1,0.2,0.2,0.3,0.3c0.1,0.1,0.1,0.3,0.1,0.5c0,0.2,0,0.4-0.1,0.5c-0.1,0.2-0.2,0.3-0.3,0.4
					c-0.1,0.1-0.3,0.2-0.5,0.3c-0.2,0.1-0.4,0.1-0.6,0.1c-0.2,0-0.4,0-0.6-0.1c-0.2-0.1-0.4-0.2-0.5-0.3c-0.1-0.1-0.1-0.1-0.2-0.1
					c0,0-0.1-0.1-0.1-0.1l0,0c0,0,0,0,0,0c0,0,0,0,0,0c0,0,0,0,0,0c0,0,0,0,0,0c0,0-0.1-0.1-0.1-0.1c0,0,0-0.1,0.1-0.1l0.4-0.4
					c0,0,0.1,0,0.1,0C60.1,27.9,60.1,27.9,60.2,27.9C60.2,27.9,60.2,27.9,60.2,27.9z"/>
				<path class="st0" d="M62.6,25.4C62.6,25.4,62.6,25.4,62.6,25.4c0.1-0.1,0.1-0.1,0.1-0.1h2.8c0,0,0.1,0,0.1,0c0,0,0,0,0,0.1v0.6
					c0,0,0,0.1,0,0.1c0,0-0.1,0-0.1,0h-0.9V29c0,0,0,0.1,0,0.1c0,0-0.1,0-0.1,0h-0.8c0,0-0.1,0-0.1,0c0,0,0-0.1,0-0.1v-2.8h-0.9
					c0,0-0.1,0-0.1,0c0,0,0-0.1,0-0.1V25.4z"/>
				<path class="st0" d="M66.4,25.4C66.4,25.4,66.4,25.4,66.4,25.4C66.4,25.4,66.5,25.4,66.4,25.4C66.5,25.4,66.5,25.3,66.4,25.4
					c0.1-0.1,0.1-0.1,0.1-0.1h0.7c0,0,0.1,0,0.1,0c0,0,0,0,0,0l0.1,0.1l1.4,3.5c0,0,0,0.1,0,0.1c0,0-0.1,0-0.1,0h-0.7
					c0,0-0.1,0-0.1,0c0,0,0,0-0.1-0.1c0-0.1-0.1-0.2-0.1-0.3c0-0.1-0.1-0.2-0.1-0.3h-1.4c0,0.1-0.1,0.2-0.1,0.3
					c0,0.1-0.1,0.2-0.1,0.3c0,0.1-0.1,0.1-0.1,0.1h-0.8c0,0-0.1,0-0.1,0c0,0,0,0,0-0.1L66.4,25.4z M66.9,26.5c0,0.1-0.1,0.2-0.1,0.3
					c0,0.1-0.1,0.2-0.1,0.3c0,0.1-0.1,0.2-0.1,0.3c0,0.1-0.1,0.2-0.1,0.3h0.8L66.9,26.5z"/>
				<path class="st0" d="M73.3,25.6C73.3,25.6,73.3,25.6,73.3,25.6c0.1,0.1,0.1,0.1,0.1,0.2l-0.4,0.6c0,0,0,0-0.1,0.1c0,0,0,0-0.1,0
					c-0.1-0.1-0.2-0.1-0.3-0.1c-0.1,0-0.2-0.1-0.3-0.1c-0.1,0-0.3,0-0.4,0.1c-0.1,0.1-0.2,0.1-0.3,0.2c-0.1,0.1-0.2,0.2-0.2,0.3
					c0,0.1-0.1,0.3-0.1,0.4c0,0.1,0,0.3,0.1,0.4c0,0.1,0.1,0.2,0.2,0.3c0.1,0.1,0.2,0.2,0.3,0.2c0.1,0.1,0.2,0.1,0.4,0.1
					c0.1,0,0.2,0,0.3-0.1c0.1,0,0.2-0.1,0.3-0.1c0,0,0.1,0,0.1,0c0,0,0,0,0.1,0l0.4,0.6c0,0,0,0.1,0,0.1c0,0,0,0-0.1,0.1
					c-0.2,0.1-0.3,0.2-0.5,0.3c-0.2,0.1-0.4,0.1-0.6,0.1c-0.2,0-0.4,0-0.5-0.1c-0.2,0-0.3-0.1-0.5-0.2c-0.1-0.1-0.3-0.2-0.4-0.3
					c-0.1-0.1-0.2-0.3-0.3-0.4c-0.1-0.1-0.2-0.3-0.2-0.5c0-0.2-0.1-0.3-0.1-0.5c0-0.2,0-0.4,0.1-0.5c0-0.2,0.1-0.3,0.2-0.5
					c0.1-0.1,0.2-0.3,0.3-0.4c0.1-0.1,0.3-0.2,0.4-0.3c0.1-0.1,0.3-0.2,0.5-0.2c0.2,0,0.3-0.1,0.5-0.1c0.2,0,0.4,0,0.6,0.1
					C73,25.4,73.1,25.5,73.3,25.6z"/>
				<path class="st0" d="M74.8,25.4C74.8,25.4,74.8,25.4,74.8,25.4C74.9,25.4,74.9,25.4,74.8,25.4C74.9,25.4,74.9,25.3,74.8,25.4
					c0.1-0.1,0.1-0.1,0.1-0.1h0.7c0,0,0.1,0,0.1,0c0,0,0,0,0,0l0.1,0.1l1.4,3.5c0,0,0,0.1,0,0.1c0,0-0.1,0-0.1,0h-0.7
					c0,0-0.1,0-0.1,0c0,0,0,0-0.1-0.1c0-0.1-0.1-0.2-0.1-0.3c0-0.1-0.1-0.2-0.1-0.3h-1.4c0,0.1-0.1,0.2-0.1,0.3
					c0,0.1-0.1,0.2-0.1,0.3c0,0.1-0.1,0.1-0.1,0.1h-0.8c0,0-0.1,0-0.1,0c0,0,0,0,0-0.1L74.8,25.4z M75.3,26.5c0,0.1-0.1,0.2-0.1,0.3
					c0,0.1-0.1,0.2-0.1,0.3c0,0.1-0.1,0.2-0.1,0.3c0,0.1-0.1,0.2-0.1,0.3h0.8L75.3,26.5z"/>
				<path class="st0" d="M77.4,25.4C77.4,25.4,77.4,25.4,77.4,25.4c0-0.1,0.1-0.1,0.1-0.1h0.8c0,0,0,0,0.1,0c0,0,0,0,0.1,0.1
					c0.2,0.4,0.4,0.7,0.6,1c0.2,0.3,0.4,0.7,0.7,1v-2.1c0,0,0-0.1,0-0.1c0,0,0,0,0.1,0h0.7c0,0,0.1,0,0.1,0c0,0,0,0,0,0.1v3.6
					c0,0,0,0.1,0,0.1c0,0,0,0-0.1,0h-0.8c0,0,0,0-0.1,0c0,0,0,0-0.1-0.1c-0.2-0.4-0.5-0.8-0.7-1.1c-0.2-0.4-0.5-0.7-0.7-1.1V29
					c0,0,0,0.1,0,0.1c0,0,0,0-0.1,0h-0.7c0,0-0.1,0-0.1,0c0,0,0,0,0-0.1V25.4z"/>
				<path class="st0" d="M84.3,25.6C84.3,25.6,84.4,25.6,84.3,25.6c0.1,0.1,0.1,0.1,0.1,0.2l-0.4,0.6c0,0,0,0-0.1,0.1c0,0,0,0-0.1,0
					c-0.1-0.1-0.2-0.1-0.3-0.1c-0.1,0-0.2-0.1-0.3-0.1c-0.1,0-0.3,0-0.4,0.1c-0.1,0.1-0.2,0.1-0.3,0.2c-0.1,0.1-0.2,0.2-0.2,0.3
					c0,0.1-0.1,0.3-0.1,0.4c0,0.1,0,0.3,0.1,0.4c0,0.1,0.1,0.2,0.2,0.3c0.1,0.1,0.2,0.2,0.3,0.2c0.1,0.1,0.2,0.1,0.4,0.1
					c0.1,0,0.2,0,0.3-0.1s0.2-0.1,0.3-0.1c0,0,0.1,0,0.1,0c0,0,0,0,0.1,0l0.4,0.6c0,0,0,0.1,0,0.1c0,0,0,0-0.1,0.1
					c-0.2,0.1-0.3,0.2-0.5,0.3c-0.2,0.1-0.4,0.1-0.6,0.1c-0.2,0-0.4,0-0.5-0.1c-0.2,0-0.3-0.1-0.5-0.2c-0.1-0.1-0.3-0.2-0.4-0.3
					c-0.1-0.1-0.2-0.3-0.3-0.4c-0.1-0.1-0.2-0.3-0.2-0.5c0-0.2-0.1-0.3-0.1-0.5c0-0.2,0-0.4,0.1-0.5c0-0.2,0.1-0.3,0.2-0.5
					c0.1-0.1,0.2-0.3,0.3-0.4c0.1-0.1,0.3-0.2,0.4-0.3c0.1-0.1,0.3-0.2,0.5-0.2c0.2,0,0.3-0.1,0.5-0.1c0.2,0,0.4,0,0.6,0.1
					C84,25.4,84.2,25.5,84.3,25.6z"/>
				<path class="st0" d="M85.8,27.6c0,0.1,0,0.2,0.1,0.3c0,0.1,0.1,0.2,0.1,0.2s0.1,0.1,0.2,0.1c0.1,0,0.2,0,0.2,0
					c0.1,0,0.2,0,0.2,0c0.1,0,0.1-0.1,0.2-0.1c0.1-0.1,0.1-0.1,0.1-0.2c0-0.1,0.1-0.2,0.1-0.3v-2.2c0,0,0-0.1,0-0.1c0,0,0.1,0,0.1,0
					h0.8c0,0,0.1,0,0.1,0c0,0,0,0,0,0.1v2.2c0,0.3,0,0.6-0.1,0.8s-0.2,0.4-0.4,0.5c-0.1,0.1-0.3,0.2-0.5,0.3
					c-0.2,0.1-0.4,0.1-0.6,0.1c-0.2,0-0.4,0-0.6-0.1c-0.2-0.1-0.4-0.1-0.5-0.3c-0.1-0.1-0.3-0.3-0.4-0.5c-0.1-0.2-0.1-0.5-0.1-0.7
					v-2.2c0,0,0-0.1,0-0.1c0,0,0,0,0.1,0h0.8c0,0,0.1,0,0.1,0c0,0,0,0,0,0.1V27.6z M86.2,24.3C86.2,24.3,86.2,24.2,86.2,24.3
					c0.1-0.1,0.1-0.1,0.1-0.1H87c0,0,0,0,0.1,0c0,0,0,0,0,0c0,0,0,0,0,0.1c0,0,0,0,0,0.1l-0.3,0.6c0,0,0,0.1-0.1,0.1c0,0,0,0-0.1,0
					h-0.6c0,0,0,0-0.1,0c0,0,0,0,0,0c0,0,0,0,0-0.1c0,0,0,0,0-0.1L86.2,24.3z"/>
				<path class="st0" d="M88.5,25.4C88.5,25.4,88.5,25.4,88.5,25.4c0-0.1,0.1-0.1,0.1-0.1h0.8c0,0,0,0,0.1,0c0,0,0,0,0.1,0.1
					c0.2,0.4,0.4,0.7,0.6,1c0.2,0.3,0.4,0.7,0.7,1v-2.1c0,0,0-0.1,0-0.1c0,0,0,0,0.1,0h0.7c0,0,0.1,0,0.1,0c0,0,0,0,0,0.1v3.6
					c0,0,0,0.1,0,0.1c0,0,0,0-0.1,0H91c0,0,0,0-0.1,0c0,0,0,0-0.1-0.1c-0.2-0.4-0.5-0.8-0.7-1.1c-0.2-0.4-0.5-0.7-0.7-1.1V29
					c0,0,0,0.1,0,0.1c0,0,0,0-0.1,0h-0.7c0,0-0.1,0-0.1,0c0,0,0,0,0-0.1V25.4z"/>
			</g>
		</g>
		<g>
			<path class="st0" d="M92.6,12.2c0-0.3,0-0.5,0.1-0.7c0.1-0.2,0.2-0.4,0.4-0.6c0.2-0.2,0.4-0.3,0.6-0.4c0.2-0.1,0.5-0.1,0.7-0.1
				s0.5,0,0.7,0.1c0.2,0.1,0.4,0.2,0.6,0.4c0.2,0.2,0.3,0.4,0.4,0.6c0.1,0.2,0.1,0.5,0.1,0.7c0,0.3,0,0.5-0.1,0.7
				c-0.1,0.2-0.2,0.4-0.4,0.6c-0.2,0.2-0.4,0.3-0.6,0.4c-0.2,0.1-0.5,0.1-0.7,0.1s-0.5,0-0.7-0.1c-0.2-0.1-0.4-0.2-0.6-0.4
				c-0.2-0.2-0.3-0.4-0.4-0.6C92.6,12.7,92.6,12.4,92.6,12.2z M92.9,12.2c0,0.2,0,0.4,0.1,0.6s0.2,0.4,0.3,0.5
				c0.1,0.1,0.3,0.2,0.5,0.3c0.2,0.1,0.4,0.1,0.6,0.1c0.2,0,0.4,0,0.6-0.1c0.2-0.1,0.3-0.2,0.5-0.3c0.1-0.1,0.2-0.3,0.3-0.5
				s0.1-0.4,0.1-0.6c0-0.2,0-0.4-0.1-0.6c-0.1-0.2-0.2-0.4-0.3-0.5c-0.1-0.1-0.3-0.2-0.5-0.3c-0.2-0.1-0.4-0.1-0.6-0.1
				c-0.2,0-0.4,0-0.6,0.1c-0.2,0.1-0.3,0.2-0.5,0.3c-0.1,0.1-0.2,0.3-0.3,0.5C92.9,11.7,92.9,11.9,92.9,12.2z M93.7,11.1h0.8
				c0.5,0,0.7,0.2,0.7,0.6c0,0.2-0.1,0.3-0.2,0.4c-0.1,0.1-0.2,0.1-0.4,0.2l0.6,0.9h-0.3l-0.6-0.9H94v0.9h-0.3V11.1z M94,12h0.3
				c0.1,0,0.1,0,0.2,0c0.1,0,0.1,0,0.2,0c0.1,0,0.1-0.1,0.1-0.1c0,0,0-0.1,0-0.2c0-0.1,0-0.1,0-0.2c0,0-0.1-0.1-0.1-0.1
				c0,0-0.1,0-0.2,0c-0.1,0-0.1,0-0.2,0H94V12z"/>
		</g>
		<g>
			<g>
				<g>
					<path class="st0" d="M76.9,33.3L76.9,33.3c-0.5-0.4-1.1-0.5-1.7-0.5c-0.6,0-1.1,0.2-1.6,0.5c-0.8,0.6-1.2,1.3-1.2,2.2
						c0,0.6,0.2,1.1,0.6,1.6c0.6,0.7,1.3,1.1,2.2,1.1h0.1c0.5,0,1.1-0.2,1.6-0.5v0.5H78v-5c0-0.2-0.2-0.4-0.5-0.4h-0.7V33.3z
						 M76.9,35.5c0,0.3-0.1,0.6-0.3,0.9c-0.4,0.5-0.8,0.7-1.3,0.7h-0.1c-0.3,0-0.5-0.1-0.8-0.2c-0.6-0.4-0.9-0.8-0.9-1.4
						c0-0.3,0.1-0.6,0.3-0.9c0.4-0.5,0.8-0.7,1.4-0.7c0.3,0,0.6,0.1,0.9,0.2C76.6,34.4,76.9,34.9,76.9,35.5L76.9,35.5z"/>
					<path class="st0" d="M71.7,36.6c-0.1-0.1-0.4-0.2-0.5,0c-0.3,0.3-0.7,0.5-1.2,0.5c-0.3,0-0.5-0.1-0.8-0.2
						c-0.6-0.4-0.9-0.8-0.9-1.4c0-0.3,0.1-0.6,0.2-0.9c0.4-0.5,0.9-0.8,1.4-0.8c0.5,0,0.8,0.1,1.2,0.4c0.2,0.1,0.4,0.1,0.5,0
						c0.2-0.2,0.5-0.5,0.5-0.5c-0.6-0.6-1.3-1-2.1-1c-0.7,0-1.3,0.2-1.9,0.7c-0.6,0.6-0.9,1.2-0.9,2c0,0.6,0.2,1.1,0.6,1.7
						c0.6,0.7,1.3,1.1,2.2,1.1h0c0.6,0,1.2-0.2,1.7-0.6c0.2-0.1,0.3-0.3,0.4-0.4L71.7,36.6z"/>
					<path class="st0" d="M85.1,32.8c-0.7,0-1.3,0.2-1.8,0.6c-0.7,0.6-1,1.3-1,2.1c0,0.6,0.2,1.2,0.7,1.7c0.6,0.6,1.3,1,2.1,1h0
						c0.7,0,1.3-0.2,1.9-0.7l-0.7-0.8l0,0c-0.4,0.3-0.8,0.5-1.2,0.5c-0.3,0-0.5-0.1-0.8-0.2c-0.2-0.1-0.4-0.3-0.6-0.5
						c-0.2-0.2,0-0.5,0.2-0.5h3.8c0-0.2,0.1-0.3,0.1-0.5c0-0.6-0.2-1.2-0.7-1.7C86.7,33.1,86,32.8,85.1,32.8z M83.5,34.9
						c0,0,0.2-1.1,1.6-1.1c0.3,0,0.5,0.1,0.8,0.2c0.2,0.1,0.4,0.3,0.6,0.5c0.1,0.2,0,0.4-0.2,0.4L83.5,34.9z"/>
					<g>
						<path class="st0" d="M65.4,35.4l1.9-2.2c0.2-0.2,0-0.5-0.2-0.5h-0.8l-0.1,0.2l-1.5,1.7L63,32.7h0l0,0h-1.4l0.2,0.2l2.1,2.5v0
							l-2.3,2.7v0h1.5l1.6-1.9l1.6,1.9h1.5L65.4,35.4z"/>
					</g>
					<path class="st0" d="M89.6,30.4h-0.6v2.3h-1v1.1h1v4.3H90v-4.3h1v-0.6c0-0.2-0.2-0.4-0.5-0.4H90v-1.9
						C90,30.6,89.8,30.4,89.6,30.4z"/>
					<path class="st0" d="M82.3,32.7c-0.9,0-1.6,0.2-2.2,0.6h0v-0.2c0-0.2-0.2-0.4-0.5-0.4H79v5.4h1.1v-2.7c0-0.2,0-0.4,0.1-0.6
						c0.3-0.7,1-1.1,2.1-1.1V32.7z"/>
				</g>
			</g>
			<g>
				<path class="st0" d="M48.7,34.7h0.7V35h0c0.3-0.2,0.7-0.3,1-0.3c0.5,0,1,0.2,1.4,0.7c0.2,0.3,0.4,0.7,0.4,1v0.1
					c0,0.5-0.2,0.9-0.6,1.2c-0.3,0.3-0.7,0.4-1.1,0.4h-0.1c-0.3,0-0.6-0.1-1-0.3h0v2.4h-0.7V34.7z M49.4,36.4c0,0.4,0.2,0.7,0.5,0.9
					c0.2,0.1,0.3,0.1,0.5,0.1h0.1c0.3,0,0.5-0.1,0.8-0.4c0.1-0.2,0.2-0.4,0.2-0.6v0c0-0.3-0.1-0.6-0.4-0.8c-0.2-0.1-0.4-0.2-0.6-0.2
					c-0.3,0-0.6,0.1-0.8,0.4C49.5,36,49.4,36.2,49.4,36.4z"/>
				<path class="st0" d="M54.2,34.7c0.5,0,0.9,0.2,1.2,0.5c0.3,0.4,0.5,0.8,0.5,1.2c0,0.5-0.2,0.9-0.6,1.3c-0.3,0.3-0.7,0.5-1.2,0.5
					h0c-0.5,0-0.9-0.2-1.3-0.6c-0.3-0.3-0.4-0.7-0.4-1.1c0-0.3,0.1-0.7,0.3-1C53.2,35,53.6,34.7,54.2,34.7z M53.2,36.4L53.2,36.4
					L53.2,36.4L53.2,36.4v0.1c0,0.3,0.1,0.5,0.4,0.8c0.2,0.1,0.4,0.2,0.6,0.2c0.3,0,0.6-0.1,0.8-0.4c0.1-0.2,0.2-0.4,0.2-0.6
					c0-0.4-0.2-0.7-0.5-0.9c-0.2-0.1-0.4-0.1-0.6-0.1c-0.3,0-0.6,0.2-0.9,0.5C53.2,36,53.2,36.2,53.2,36.4z"/>
				<path class="st0" d="M56.2,34.7h0.7v0.4h0c0.4-0.3,0.8-0.4,1.4-0.4v0.7c-0.7,0-1.1,0.2-1.3,0.7c-0.1,0.1-0.1,0.3-0.1,0.4v1.7
					h-0.7V34.7z"/>
			</g>
		</g>
	</g>
</g>
</svg>
